<?xml version="1.0" encoding="UTF-8"?>
<!-- Generator: Adobe Illustrator 16.0.4, SVG Export Plug-In . SVG Version: 6.00 Build 0)  -->
<svg version="1.2" baseProfile="tiny" id="BBBR_x5F_LOGO" xmlns="http://www.w3.org/2000/svg" xmlns:xlink="http://www.w3.org/1999/xlink" x="0px" y="0px" width="567.989px" height="134.75px" viewBox="0 0 567.989 134.75" xml:space="preserve">
<path fill="#FFFFFF" d="M247.267,6.086h19.194c5.637,0,9.708,0.814,12.208,2.442c3.284,2.122,4.927,5.575,4.927,10.36  c0,4.687-1.838,7.843-5.515,9.471c4.854,1.678,7.281,5.502,7.281,11.471c0,4.785-1.594,8.461-4.781,11.025  c-1.717,1.382-3.677,2.27-5.883,2.664c-1.373,0.247-3.579,0.37-6.619,0.37h-20.812V6.086L247.267,6.086z M256.974,14.004v11.248  h9.119c5.196,0,7.795-1.875,7.795-5.624c0-2.812-1.226-4.562-3.677-5.254c-0.882-0.246-2.305-0.37-4.265-0.37H256.974z   M256.974,32.948v12.729h10.075c2.941,0,5.111-0.506,6.508-1.518c1.397-1.01,2.096-2.602,2.096-4.772  c0-2.318-0.908-4.07-2.721-5.254c-1.226-0.789-3.383-1.185-6.472-1.185H256.974z M288.905,16.891h8.973v4.587  c1.127-1.923,2.401-3.243,3.824-3.958c1.422-0.714,3.432-1.073,6.029-1.073c0.688,0,1.445,0.025,2.279,0.074v8.732h-1.838  c-3.235,0-5.59,0.592-7.061,1.775c-1.275,1.036-2.084,2.294-2.427,3.774c-0.345,1.479-0.515,3.676-0.515,6.586V53.89h-9.268V16.891  H288.905z M312.902,5.199h9.267v8.584h-9.267V5.199z M312.902,16.891h9.267v37h-9.267V16.891z M326.668,16.891h9.192v2.738  l0.073-0.074c2.5-2.516,5.663-3.774,9.486-3.774c3.432,0,6.274,0.79,8.531,2.368c1.322,0.938,2.4,2.122,3.234,3.552  c1.177,2.022,1.766,5.105,1.766,9.249v22.94h-9.193V32.875c0-1.628-0.072-3.083-0.219-4.366c-0.395-3.206-2.307-4.811-5.736-4.811  c-2.502,0-4.463,0.864-5.885,2.591c-1.028,1.233-1.666,2.936-1.912,5.105c-0.098,0.84-0.146,2.689-0.146,5.55V53.89h-9.192V16.891z   M396.62,16.891v32.633c0,4.44-0.541,7.597-1.617,9.473c-2.307,3.995-7.354,5.993-15.149,5.993c-5.001,0-8.985-0.826-11.951-2.479  c-2.967-1.653-4.596-4.699-4.89-9.139h9.486c0.244,3.058,2.523,4.588,6.84,4.588c3.283,0,5.588-0.666,6.912-1.998  c0.931-0.938,1.396-2.713,1.396-5.328c0-0.592-0.025-1.282-0.072-2.072c-2.307,2.319-5.369,3.479-9.193,3.479  c-4.805,0-8.653-1.652-11.545-4.958c-2.895-3.305-4.34-7.671-4.34-13.099c0-5.476,1.481-9.879,4.448-13.208  c2.966-3.33,6.9-4.995,11.804-4.995c3.727,0,6.74,1.16,9.047,3.478v-2.368H396.62z M387.647,34.132v-0.444  c0-6.906-2.525-10.359-7.574-10.359c-2.55,0-4.597,0.962-6.141,2.886c-1.545,1.924-2.316,4.489-2.316,7.695  c0,3.208,0.746,5.772,2.242,7.696c1.495,1.924,3.469,2.886,5.92,2.886C385.024,44.492,387.647,41.04,387.647,34.132z M416.769,6.086  h19.192c5.639,0,9.709,0.814,12.209,2.442c3.283,2.122,4.928,5.575,4.928,10.36c0,4.687-1.84,7.843-5.516,9.471  c4.854,1.678,7.279,5.502,7.279,11.471c0,4.785-1.594,8.461-4.779,11.025c-1.717,1.382-3.678,2.27-5.883,2.664  c-1.373,0.247-3.58,0.37-6.619,0.37h-20.812L416.769,6.086L416.769,6.086z M426.475,14.004v11.248h9.119  c5.197,0,7.795-1.875,7.795-5.624c0-2.812-1.225-4.562-3.676-5.254c-0.883-0.246-2.305-0.37-4.266-0.37H426.475z M426.475,32.948  v12.729h10.076c2.941,0,5.111-0.506,6.508-1.518c1.396-1.01,2.098-2.602,2.098-4.772c0-2.318-0.908-4.07-2.723-5.254  c-1.227-0.789-3.383-1.185-6.473-1.185H426.475z M459.473,28.952c0.1-1.874,0.344-3.428,0.736-4.661  c0.832-2.713,2.707-4.81,5.625-6.29c2.916-1.48,6.582-2.22,10.994-2.22c7.943,0,12.551,2.492,13.826,7.474  c0.391,1.529,0.588,4.342,0.588,8.436v12.358c0,2.861,0.121,5.008,0.367,6.438c0.146,0.987,0.562,2.122,1.25,3.404h-9.854  l-0.146-3.182c-2.844,2.664-6.398,3.996-10.662,3.996c-4.365,0-7.822-1.061-10.371-3.183c-2.549-2.12-3.822-5.007-3.822-8.658  c0-4.145,1.52-7.104,4.559-8.88c2.061-1.232,5.59-2.244,10.59-3.034l4.561-0.739l3.678-0.74c0.734-0.148,1.104-0.492,1.104-1.036  c0-3.552-2.035-5.328-6.105-5.328c-2.893,0-5.1,0.74-6.617,2.22c-0.688,0.643-1.129,1.851-1.324,3.626L459.473,28.952  L459.473,28.952z M482.344,36.648c-0.1,0-0.195,0.025-0.295,0.074c-0.539,0.1-1.812,0.346-3.822,0.74l-4.779,0.888  c-2.061,0.396-3.506,0.913-4.34,1.554c-0.834,0.642-1.25,1.58-1.25,2.812c0,3.157,2.01,4.735,6.029,4.735  c1.568,0,3.113-0.418,4.635-1.258c1.715-0.888,2.842-1.998,3.383-3.33c0.342-0.788,0.514-2.046,0.514-3.773v-1.48  C482.418,37.216,482.393,36.896,482.344,36.648z M519.967,30.21c-0.932-4.292-3.357-6.438-7.281-6.438  c-2.695,0-4.854,1.036-6.471,3.108c-1.619,2.071-2.428,4.835-2.428,8.288s0.834,6.253,2.5,8.398c1.666,2.146,3.824,3.22,6.473,3.22  c3.773,0,6.178-2.047,7.207-6.143l9.191,0.296c-0.393,4.194-2.047,7.537-4.963,10.027c-2.918,2.491-6.631,3.737-11.143,3.737  c-5.59,0-10.051-1.764-13.385-5.291c-3.334-3.527-5-8.275-5-14.245c0-5.821,1.654-10.495,4.963-14.023  c3.311-3.526,7.66-5.291,13.055-5.291c4.656,0,8.457,1.284,11.398,3.848c2.941,2.565,4.633,6.067,5.074,10.508L519.967,30.21  L519.967,30.21z M532.69,5.125h9.266v26.27l11.986-14.503h11.547L552.104,32.21l15.885,21.682h-11.178l-10.664-14.948l-4.191,5.032  v9.916h-9.266V5.125L532.69,5.125z M247.267,80.086h19.194c5.637,0,9.708,0.812,12.208,2.441c3.284,2.121,4.927,5.576,4.927,10.359  c0,4.688-1.838,7.844-5.515,9.473c4.854,1.678,7.281,5.502,7.281,11.471c0,4.785-1.594,8.461-4.781,11.025  c-1.717,1.381-3.677,2.27-5.883,2.664c-1.373,0.246-3.579,0.369-6.619,0.369h-20.812V80.086L247.267,80.086z M256.974,88.004v11.248  h9.119c5.196,0,7.795-1.875,7.795-5.624c0-2.812-1.226-4.562-3.677-5.254c-0.882-0.247-2.305-0.37-4.265-0.37H256.974z   M256.974,106.948v12.729h10.075c2.941,0,5.111-0.506,6.508-1.518c1.397-1.011,2.096-2.603,2.096-4.772  c0-2.318-0.908-4.07-2.721-5.254c-1.226-0.789-3.383-1.185-6.472-1.185H256.974z M288.905,90.891h8.973v4.588  c1.127-1.924,2.401-3.244,3.824-3.959c1.422-0.715,3.432-1.074,6.029-1.074c0.688,0,1.445,0.025,2.279,0.074v8.732h-1.838  c-3.235,0-5.59,0.592-7.061,1.775c-1.275,1.035-2.084,2.293-2.427,3.773c-0.345,1.479-0.515,3.676-0.515,6.586v16.502h-9.268V90.891  H288.905z M312.902,79.198h9.267v8.584h-9.267V79.198z M312.902,90.891h9.267v37h-9.267V90.891z M330.346,79.568h9.191v11.322h7.869  v7.399h-7.869v18.353c0,1.678,0.258,2.727,0.772,3.146s2.657,0.629,6.435,0.629h0.588v7.843l-2.646,0.073  c-1.766,0.05-2.844,0.075-3.234,0.075c-1.324,0-2.404-0.025-3.236-0.073c-2.99-0.199-5.123-1.112-6.397-2.745  c-0.589-0.791-0.981-1.781-1.177-2.967c-0.196-1.188-0.294-4.006-0.294-8.457V98.291h-5.222v-7.4h5.222L330.346,79.568  L330.346,79.568z M350.87,79.198h9.268v8.584h-9.268V79.198z M350.87,90.891h9.268v37h-9.268V90.891z M387.522,102.139  c-0.441-3.306-2.795-4.959-7.061-4.959c-4.168,0-6.25,1.309-6.25,3.922c0,0.987,0.367,1.703,1.103,2.146  c0.931,0.543,3.688,1.012,8.272,1.404c4.584,0.396,8.004,1.531,10.26,3.404c2.255,1.875,3.383,4.613,3.383,8.215  c0,3.896-1.434,6.943-4.303,9.14c-2.867,2.196-6.852,3.293-11.949,3.293c-6.963,0-11.891-2.022-14.782-6.068  c-1.128-1.528-1.938-3.922-2.427-7.178h9.561c0.393,3.799,3.039,5.696,7.942,5.696c4.412,0,6.618-1.404,6.618-4.217  c0-0.838-0.172-1.455-0.516-1.851c-0.049-0.147-0.172-0.296-0.367-0.444c-0.637-0.492-1.435-0.801-2.391-0.925  c-0.955-0.123-2.881-0.356-5.771-0.702c-5.59-0.69-9.315-1.949-11.18-3.774c-1.863-1.824-2.793-4.218-2.793-7.179  c0-3.699,1.42-6.66,4.266-8.879c2.843-2.221,6.643-3.33,11.398-3.33c7.059,0,11.889,2.244,14.486,6.733  c0.784,1.382,1.273,3.231,1.471,5.55h-8.971V102.139z M400.532,79.125h9.266v14.8c2.549-2.563,5.785-3.849,9.707-3.849  c4.021,0,7.232,1.234,9.635,3.699c1.273,1.332,2.156,2.839,2.646,4.516c0.49,1.678,0.736,4.465,0.736,8.361v21.238h-9.193  l-0.072-21.83c-0.1-2.369-0.197-3.748-0.295-4.145c-0.1-0.74-0.367-1.432-0.809-2.072c-0.982-1.431-2.551-2.146-4.708-2.146  c-1.521,0-2.93,0.444-4.229,1.331c-1.299,0.89-2.219,2.023-2.758,3.404c-0.44,1.137-0.66,3.281-0.66,6.438v19.019h-9.268V79.125  H400.532z M452.817,80.086h17.797c4.363,0,7.514,0.26,9.451,0.775c1.936,0.52,3.641,1.543,5.109,3.072  c2.355,2.418,3.529,5.724,3.529,9.916c0,4.982-2.205,8.437-6.617,10.359c0.98,0.396,1.775,0.876,2.389,1.441  c0.613,0.568,1.041,1.1,1.287,1.592c0.834,1.729,1.373,5.65,1.619,11.767c0.047,1.628,0.146,3.146,0.293,4.552  c0.148,1.405,0.736,2.849,1.768,4.328h-10.812c-0.146-0.641-0.246-1.158-0.295-1.554c-0.195-1.231-0.342-3.649-0.439-7.252  c-0.146-4.045-0.418-6.61-0.811-7.696c-0.145-0.641-0.49-1.195-1.029-1.664c-0.539-0.47-1.092-0.752-1.652-0.852  c-0.564-0.1-1.828-0.148-3.789-0.148h-8.162v19.166h-9.635V80.086z M462.452,88.079v12.506h8.09c2.795,0,4.828-0.419,6.104-1.259  c1.617-1.035,2.428-2.663,2.428-4.885c0-2.219-0.785-3.945-2.354-5.18c-1.129-0.789-3.213-1.184-6.252-1.184L462.452,88.079  L462.452,88.079z M492.344,102.952c0.1-1.874,0.344-3.429,0.736-4.661c0.832-2.713,2.707-4.811,5.625-6.29  c2.916-1.479,6.582-2.222,10.994-2.222c7.941,0,12.551,2.492,13.826,7.476c0.391,1.529,0.588,4.343,0.588,8.437v12.357  c0,2.861,0.121,5.008,0.367,6.438c0.146,0.988,0.562,2.123,1.25,3.404h-9.854l-0.146-3.182c-2.844,2.664-6.398,3.996-10.662,3.996  c-4.365,0-7.822-1.061-10.371-3.184c-2.549-2.119-3.822-5.006-3.822-8.657c0-4.144,1.518-7.104,4.559-8.88  c2.061-1.232,5.59-2.244,10.59-3.034l4.561-0.739l3.678-0.74c0.734-0.147,1.104-0.492,1.104-1.035c0-3.553-2.035-5.328-6.105-5.328  c-2.893,0-5.1,0.74-6.619,2.22c-0.686,0.644-1.127,1.851-1.322,3.626L492.344,102.952L492.344,102.952z M515.215,110.648  c-0.1,0-0.197,0.024-0.295,0.074c-0.539,0.1-1.812,0.346-3.822,0.739l-4.779,0.888c-2.061,0.396-3.506,0.914-4.34,1.555  c-0.834,0.642-1.25,1.58-1.25,2.812c0,3.157,2.01,4.735,6.029,4.735c1.568,0,3.113-0.418,4.633-1.258  c1.717-0.889,2.844-1.998,3.385-3.33c0.342-0.788,0.514-2.047,0.514-3.773v-1.48C515.29,111.216,515.264,110.896,515.215,110.648z   M528.739,79.198h9.266v8.584h-9.266V79.198z M528.739,90.891h9.266v37h-9.266V90.891z M542.592,79.125h9.193v48.766h-9.193V79.125z  "/>
<path fill="#ED1C24" d="M0,53.828v-21.83h61.208L128.013,0h52.361L106.19,31.998h114.912v21.83H106.19l53.704,26.164h61.208v21.847  h-61.21L93.09,133.83H40.727l74.185-31.991H0V79.992h114.912L61.208,53.828H0z"/>
</svg>